<svg xmlns="http://www.w3.org/2000/svg" viewBox="0 0 512 512">
  <rect width="512" height="512" rx="112" fill="#173a26"/>
  <circle cx="256" cy="256" r="178" fill="#fff8e7"/>
  <rect x="164" y="154" width="184" height="226" rx="24" fill="#f6dfae" stroke="#173a26" stroke-width="18"/>
  <path d="M204 210h104M204 260h104M204 310h72" fill="none" stroke="#173a26" stroke-width="22" stroke-linecap="round"/>
  <path d="M145 367c0-54 36-111 80-111s80 57 80 111c0 50-31 78-80 78s-80-28-80-78Z" fill="#ffffff" stroke="#173a26" stroke-width="18"/>
  <path d="M285 363c0-45 30-92 66-92s66 47 66 92c0 41-26 64-66 64s-66-23-66-64Z" fill="#ffcf31" stroke="#173a26" stroke-width="18"/>
</svg>
